<svg xmlns="http://www.w3.org/2000/svg" width="38" height="38" viewBox="0 0 38 38" fill="none">
  <path d="M29.146 6.574C28.6951 6.574 28.2542 6.70772 27.8793 6.95825C27.5044 7.20878 27.2121 7.56487 27.0396 7.98148C26.867 8.3981 26.8218 8.85653 26.9098 9.29881C26.9978 9.74108 27.2149 10.1473 27.5338 10.4662C27.8527 10.7851 28.2589 11.0022 28.7012 11.0902C29.1435 11.1782 29.6019 11.133 30.0185 10.9604C30.4351 10.7879 30.7912 10.4956 31.0417 10.1207C31.2923 9.74576 31.426 9.30494 31.426 8.854C31.426 8.24931 31.1858 7.66938 30.7582 7.2418C30.3306 6.81421 29.7507 6.574 29.146 6.574ZM37.886 11.172C37.849 9.59557 37.5538 8.03586 37.012 6.555C36.5289 5.28795 35.777 4.14063 34.808 3.192C33.8672 2.21811 32.7172 1.47094 31.445 1.007C29.968 0.448705 28.4066 0.146699 26.828 0.114C24.814 -1.06171e-07 24.168 0 19 0C13.832 0 13.186 -1.06171e-07 11.172 0.114C9.59339 0.146699 8.03195 0.448705 6.555 1.007C5.28518 1.47563 4.13617 2.22217 3.192 3.192C2.21811 4.13284 1.47094 5.28284 1.007 6.555C0.448705 8.03195 0.146699 9.59339 0.114 11.172C-1.06171e-07 13.186 0 13.832 0 19C0 24.168 -1.06171e-07 24.814 0.114 26.828C0.146699 28.4066 0.448705 29.968 1.007 31.445C1.47094 32.7172 2.21811 33.8672 3.192 34.808C4.13617 35.7778 5.28518 36.5244 6.555 36.993C8.03195 37.5513 9.59339 37.8533 11.172 37.886C13.186 38 13.832 38 19 38C24.168 38 24.814 38 26.828 37.886C28.4066 37.8533 29.968 37.5513 31.445 36.993C32.7172 36.5291 33.8672 35.7819 34.808 34.808C35.7813 33.8629 36.5338 32.7146 37.012 31.445C37.5538 29.9641 37.849 28.4044 37.886 26.828C37.886 24.814 38 24.168 38 19C38 13.832 38 13.186 37.886 11.172ZM34.466 26.6C34.4522 27.8061 34.2337 29.001 33.82 30.134C33.5166 30.9609 33.0294 31.708 32.395 32.319C31.7787 32.947 31.0331 33.4332 30.21 33.744C29.077 34.1577 27.8821 34.3762 26.676 34.39C24.776 34.485 24.073 34.504 19.076 34.504C14.079 34.504 13.376 34.504 11.476 34.39C10.2237 34.4134 8.97673 34.2206 7.79 33.82C7.00299 33.4933 6.29158 33.0083 5.7 32.395C5.06937 31.7846 4.5882 31.0369 4.294 30.21C3.83013 29.0608 3.57284 27.8387 3.534 26.6C3.534 24.7 3.42 23.997 3.42 19C3.42 14.003 3.42 13.3 3.534 11.4C3.54252 10.167 3.76761 8.9451 4.199 7.79C4.53349 6.98803 5.0469 6.27315 5.7 5.7C6.27725 5.04672 6.99065 4.52788 7.79 4.18C8.94815 3.76208 10.1688 3.54365 11.4 3.534C13.3 3.534 14.003 3.42 19 3.42C23.997 3.42 24.7 3.42 26.6 3.534C27.8061 3.54783 29.001 3.76627 30.134 4.18C30.9974 4.50044 31.7724 5.02141 32.395 5.7C33.0176 6.28364 33.5041 6.99719 33.82 7.79C34.2423 8.94697 34.4608 10.1684 34.466 11.4C34.561 13.3 34.58 14.003 34.58 19C34.58 23.997 34.561 24.7 34.466 26.6ZM19 9.253C17.073 9.25676 15.1904 9.8316 13.59 10.9049C11.9897 11.9782 10.7433 13.5018 10.0085 15.2831C9.27369 17.0645 9.08338 19.0237 9.46161 20.9132C9.83984 22.8026 10.7696 24.5376 12.1335 25.8989C13.4974 27.2601 15.2342 28.1865 17.1244 28.5611C19.0146 28.9356 20.9735 28.7415 22.7534 28.0032C24.5333 27.2649 26.0545 26.0156 27.1246 24.4132C28.1948 22.8107 28.766 20.927 28.766 19C28.7685 17.7177 28.5175 16.4476 28.0274 15.2626C27.5372 14.0777 26.8177 13.0013 25.9101 12.0955C25.0024 11.1897 23.9247 10.4722 22.7388 9.98437C21.5529 9.49654 20.2823 9.24799 19 9.253ZM19 25.327C17.7486 25.327 16.5254 24.9559 15.4849 24.2607C14.4444 23.5655 13.6335 22.5773 13.1546 21.4212C12.6757 20.2651 12.5504 18.993 12.7946 17.7657C13.0387 16.5383 13.6413 15.411 14.5261 14.5261C15.411 13.6413 16.5383 13.0387 17.7657 12.7946C18.993 12.5504 20.2651 12.6757 21.4212 13.1546C22.5773 13.6335 23.5655 14.4444 24.2607 15.4849C24.9559 16.5254 25.327 17.7486 25.327 19C25.327 19.8309 25.1633 20.6536 24.8454 21.4212C24.5274 22.1889 24.0614 22.8863 23.4739 23.4739C22.8863 24.0614 22.1889 24.5274 21.4212 24.8454C20.6536 25.1633 19.8309 25.327 19 25.327Z" fill="#1758FF"/>
</svg>