<svg xmlns="http://www.w3.org/2000/svg" width="38" height="36" viewBox="0 0 38 36" fill="none">
  <path d="M36.7309 1.32507C36.2391 0.912487 35.6455 0.642087 35.0134 0.542645C34.3813 0.443203 33.7343 0.518439 33.1413 0.760348L2.1862 13.3631C1.5242 13.6378 0.960693 14.109 0.570463 14.7141C0.180234 15.3193 -0.0182621 16.0298 0.00132134 16.7514C0.0209048 17.473 0.257642 18.1715 0.68011 18.7542C1.10258 19.3369 1.6908 19.7763 2.3667 20.0141L8.62823 22.2101L12.1183 33.8484C12.1657 34.0038 12.2345 34.1518 12.3227 34.288C12.3361 34.3089 12.355 34.3244 12.3692 34.3447C12.4712 34.4881 12.5943 34.6149 12.7345 34.7206C12.7743 34.7512 12.8125 34.7799 12.8551 34.8071C13.019 34.9168 13.2006 34.997 13.3918 35.0442L13.4122 35.0459L13.4238 35.0509C13.5388 35.0745 13.6557 35.0865 13.773 35.0866C13.7843 35.0866 13.7943 35.0812 13.8055 35.081C13.9825 35.0779 14.1579 35.0471 14.3256 34.9899C14.3646 34.9765 14.398 34.9541 14.4358 34.9379C14.5608 34.8857 14.6793 34.8187 14.7887 34.7384C14.8763 34.6639 14.964 34.5895 15.0516 34.5151L19.7191 29.3185L26.6807 34.7567C27.2936 35.2378 28.0479 35.4994 28.8246 35.5C29.6385 35.4989 30.4273 35.2158 31.0587 34.698C31.6902 34.1801 32.1259 33.4592 32.2928 32.6559L37.9285 4.75771C38.0562 4.12981 38.0122 3.47872 37.8013 2.87408C37.5903 2.26944 37.2203 1.73401 36.7309 1.32507ZM14.4579 22.7646C14.2184 23.0051 14.0547 23.3117 13.9873 23.6457L13.4527 26.2654L12.0984 21.7487L19.1203 18.0614L14.4579 22.7646ZM28.7977 32.0027L20.571 25.5763C20.2268 25.3081 19.7951 25.1805 19.3618 25.219C18.9285 25.2574 18.5255 25.4591 18.233 25.7838L16.7382 27.4476L17.2665 24.8585L29.5011 12.5211C29.7931 12.227 29.971 11.8371 30.0026 11.4222C30.0342 11.0072 29.9174 10.5946 29.6733 10.259C29.4292 9.92338 29.074 9.68704 28.672 9.59276C28.27 9.49848 27.8478 9.55249 27.4819 9.74502L9.92328 18.9639L3.49013 16.5899L34.5447 4.06196L28.7977 32.0027Z" fill="#1758FF"/>
</svg>